<?xml version="1.0" encoding="UTF-8"?>
<!DOCTYPE svg PUBLIC "-//W3C//DTD SVG 1.1//EN" "http://www.w3.org/Graphics/SVG/1.1/DTD/svg11.dtd">
<svg xmlns="http://www.w3.org/2000/svg" version="1.1" width="2048px" height="2048px" style="shape-rendering:geometricPrecision; text-rendering:geometricPrecision; image-rendering:optimizeQuality; fill-rule:evenodd; clip-rule:evenodd" xmlns:xlink="http://www.w3.org/1999/xlink">
<g><path style="opacity:1.0" fill="#ffffff" d="M 609.5,223.5 C 1046.17,223.5 1482.83,223.5 1919.5,223.5C 1919.5,330.167 1919.5,436.833 1919.5,543.5C 1617.17,543.167 1314.83,543.5 1012.5,544.5C 1041.97,650.715 1070.97,757.048 1099.5,863.5C 1287.5,863.5 1475.5,863.5 1663.5,863.5C 1663.5,970.167 1663.5,1076.83 1663.5,1183.5C 1504.83,1183.5 1346.17,1183.5 1187.5,1183.5C 1216.11,1290.12 1245.11,1396.62 1274.5,1503C 1489.5,1503.5 1704.5,1503.67 1919.5,1503.5C 1919.5,1610.17 1919.5,1716.83 1919.5,1823.5C 1622.5,1823.83 1325.5,1823.5 1028.5,1822.5C 941.654,1504.12 854.654,1185.78 767.5,867.5C 709.392,1079.32 651.392,1291.15 593.5,1503C 665.502,1503.17 737.502,1503.67 809.5,1504.5C 838.954,1610.65 867.621,1716.99 895.5,1823.5C 654.832,1823.83 414.166,1823.5 173.5,1822.5C 318.992,1289.53 464.325,756.53 609.5,223.5 Z"/></g>
</svg>
