<?xml version="1.0" standalone="yes"?>
<svg xmlns="http://www.w3.org/2000/svg" width="600" height="600">
    <path style="fill:#ffffff00; stroke:none;"
          d="M0 0L0 275L1 275C1.0194 245.714 10.4179 214.954 21.1998 188C53.4378 107.408 121.617 42.7944 204 15.3333C226.489 7.83704 251.119 1.01587 275 1L250 0L194 0L0 0z"/>
    <path style="fill:#29abe1; stroke:none;"
          d="M275 0.424377C220.887 7.53284 171.123 22.4968 126 54.4244C94.4342 76.759 68.2492 104.773 47.0031 137C-29.9056 253.657 -10.9663 419.409 90 515.961C157.21 580.231 250.048 609.81 342 597.718C384.578 592.12 427.116 576.654 463 552.997C503.712 526.156 538.291 490.746 562.138 448C627.216 331.345 607.422 177.202 510 84.0394C475.965 51.4925 435.542 28.1262 391 13.3333C355.352 1.49432 312.477 -4.49872 275 0.424377z"/>
    <path style="fill:#ffffff00; stroke:none;"
          d="M325 0L325 1C354.286 1.01941 385.046 10.4178 412 21.1998C492.592 53.4379 557.206 121.617 584.667 204C592.163 226.489 598.984 251.119 599 275L600 275L600 0L325 0z"/>
    <path style="fill:#9fdaf2; stroke:none;" d="M106.667 167.333L107.333 167.667L106.667 167.333z"/>
    <path style="fill:#ffffff; stroke:none;"
          d="M422 385C458.247 385 494.101 378.82 520.961 351.961C570.596 302.325 555.263 212.047 494 179.781C461.584 162.707 423.366 167 388 167L198 167L131 167C122.219 167 109.743 164.746 102.105 169.995C96.1141 174.111 95.033 182.319 95.0008 189C94.93 203.666 95 218.334 95 233C95 280.66 96 328.424 96 376C96 397.489 91.7104 423.53 107.185 440.996C129.028 465.649 174.617 457 204 457C245.69 457 287.277 456 329 456C349.443 456 373.298 459.629 392 449.677C416.376 436.705 422 410.33 422 385z"/>
    <path style="fill:#9fdaf2; stroke:none;"
          d="M449 167L449 168L455 168L449 167M104 168L105 169L104 168M458 168L458 169L461 169L458 168M102 169L103 170L102 169M464.667 169.333L465.333 169.667L464.667 169.333M469.667 170.333L470.333 170.667L469.667 170.333M472.667 171.333L473.333 171.667L472.667 171.333M476 172L477 173L476 172M98 173L99 174L98 173M479 173L480 174L479 173M482 174L483 175L482 174M97 175L98 176L97 175M484 175L485 176L484 175M487 176L488 177L487 176M96 177L97 178L96 177M489 177L490 178L489 177M491 178L492 179L491 178M95 179L95 182L96 182L95 179M493 179L494 180L493 179M495 180L496 181L495 180M498 182L499 183L498 182M500 183L501 184L500 183M503 185L504 186L503 185M506 187L507 188L506 187M509 189L510 190L509 189M510 190L511 191L510 190M514 193L515 194L514 193M515 194L516 195L515 194M516 195L517 196L516 195M517 196L518 197L517 196M518 197L519 198L518 197M519 198L520 199L519 198M520 199L521 200L520 199M521 200L522 201L521 200M522 201L523 202L522 201M523 202L524 203L523 202M524 203L525 204L524 203M525 204L526 205L525 204M528 208L529 209L528 208M529 209L530 210L529 209M531 212L532 213L531 212M533 215L534 216L533 215M534 217L535 218L534 217M535 218L536 219L535 218M536 220L537 221L536 220M424 222L424 223L449 223L424 222M537 222L538 223L537 222z"/>
    <path style="fill:#29abe1; stroke:none;"
          d="M424 223L424 330C441.689 331.396 458.973 331.483 473.999 320.51C498.995 302.257 502.427 256.26 478.961 235.301C463.294 221.308 443.493 223 424 223z"/>
    <path style="fill:#9fdaf2; stroke:none;"
          d="M453 223L453 224L456 224L453 223M458.667 224.333L459.333 224.667L458.667 224.333M538 224L539 225L538 224M461.667 225.333L462.333 225.667L461.667 225.333M464 226L465 227L464 226M539 226L540 227L539 226M467 227L468 228L467 227M469 228L470 229L469 228M540 228L541 229L540 228M470 229L471 230L470 229M472 230L473 231L472 230M541 230L542 231L541 230M475 232L476 233L475 232M542.333 232.667L542.667 233.333L542.333 232.667M476 233L477 234L476 233z"/>
    <path style="fill:#ff9d9b; stroke:none;" d="M206 235L206 236L218 236L206 235M296 235L296 236L299 236L296 235z"/>
    <path style="fill:#ff5f5b; stroke:none;"
          d="M299 235.428C289.223 236.832 280.155 240.466 272 246.029C268.671 248.299 263.123 254.958 259 254.945C253.359 254.927 243.675 243.972 238 241.323C217.811 231.901 187.011 233.216 173.221 253.004C142.58 296.97 195.803 338.977 223 365.999C231.038 373.985 239.792 381.233 248 389.039C251.134 392.019 255.075 397.235 260 396.574C269.224 395.337 281.538 379.289 288 372.985C311.272 350.283 346.411 324.808 352.385 291C358.036 259.02 331.613 230.746 299 235.428z"/>
    <path style="fill:#ff9d9b; stroke:none;" d="M312 235L312 236L315 236L312 235z"/>
    <path style="fill:#9fdaf2; stroke:none;" d="M543 235L544 236L543 235z"/>
    <path style="fill:#ff9d9b; stroke:none;"
          d="M199 236L199 237L202 237L199 236M222.667 236.333L223.333 236.667L222.667 236.333M291.667 236.333L292.333 236.667L291.667 236.333M317.667 236.333L318.333 236.667L317.667 236.333M196 237L197 238L196 237M227.667 237.333L228.333 237.667L227.667 237.333M288.667 237.333L289.333 237.667L288.667 237.333M321 237L322 238L321 237M193 238L194 239L193 238M230.667 238.333L231.333 238.667L230.667 238.333M286 238L287 239L286 238M323.667 238.333L324.333 238.667L323.667 238.333z"/>
    <path style="fill:#9fdaf2; stroke:none;" d="M544 238L545 239L544 238z"/>
    <path style="fill:#ff9d9b; stroke:none;"
          d="M190 239L191 240L190 239M233 239L234 240L233 239M283 239L284 240L283 239M326 239L327 240L326 239M188 240L189 241L188 240M236 240L237 241L236 240M281 240L282 241L281 240M328 240L329 241L328 240z"/>
    <path style="fill:#9fdaf2; stroke:none;" d="M483 240L484 241L483 240z"/>
    <path style="fill:#ff9d9b; stroke:none;"
          d="M186 241L187 242L186 241M238 241L239 242L238 241M279 241L280 242L279 241M330 241L331 242L330 241z"/>
    <path style="fill:#9fdaf2; stroke:none;" d="M484 241L485 242L484 241M545 241L546 242L545 241z"/>
    <path style="fill:#ff9d9b; stroke:none;"
          d="M184 242L185 243L184 242M240 242L241 243L240 242M277 242L278 243L277 242M183 243L184 244L183 243M242 243L243 244L242 243M333 243L334 244L333 243M181 244L182 245L181 244M243 244L244 245L243 244M274 244L275 245L274 244z"/>
    <path style="fill:#9fdaf2; stroke:none;"
          d="M486 244L487 245L486 244M546.333 244.667L546.667 245.333L546.333 244.667z"/>
    <path style="fill:#ff9d9b; stroke:none;"
          d="M180 245L181 246L180 245M245 245L246 246L245 245M272 245L273 246L272 245M336 245L337 246L336 245z"/>
    <path style="fill:#9fdaf2; stroke:none;" d="M487 245L488 246L487 245z"/>
    <path style="fill:#ff9d9b; stroke:none;"
          d="M179 246L180 247L179 246M271 246L272 247L271 246M337 246L338 247L337 246M248 247L249 248L248 247z"/>
    <path style="fill:#9fdaf2; stroke:none;" d="M488 247L489 248L488 247z"/>
    <path style="fill:#ff9d9b; stroke:none;" d="M249 248L250 249L249 248M268 248L269 249L268 248z"/>
    <path style="fill:#9fdaf2; stroke:none;" d="M547.333 248.667L547.667 249.333L547.333 248.667z"/>
    <path style="fill:#ff9d9b; stroke:none;" d="M267 249L268 250L267 249z"/>
    <path style="fill:#9fdaf2; stroke:none;" d="M489 249L490 250L489 249z"/>
    <path style="fill:#ff9d9b; stroke:none;"
          d="M252 250L253 251L252 250M174 251L175 252L174 251M253 251L254 252L253 251z"/>
    <path style="fill:#9fdaf2; stroke:none;" d="M490 251L491 252L490 251z"/>
    <path style="fill:#ff9d9b; stroke:none;"
          d="M173 252L174 253L173 252M254 252L255 253L254 252M263 252L264 253L263 252M343 252L344 253L343 252M255 253L256 254L255 253M262 253L263 254L262 253M344 253L345 254L344 253z"/>
    <path style="fill:#9fdaf2; stroke:none;" d="M548.333 253.667L548.667 254.333L548.333 253.667z"/>
    <path style="fill:#ff9d9b; stroke:none;" d="M256 254L257 255L256 254M261 254L262 255L261 254z"/>
    <path style="fill:#9fdaf2; stroke:none;" d="M491 254L492 255L491 254z"/>
    <path style="fill:#ff9d9b; stroke:none;"
          d="M171 255L172 256L171 255M257 255L258 256L257 255M260 255L261 256L260 255M258.667 256.333L259.333 256.667L258.667 256.333M346 256L347 257L346 256z"/>
    <path style="fill:#9fdaf2; stroke:none;" d="M492.333 256.667L492.667 257.333L492.333 256.667z"/>
    <path style="fill:#ff9d9b; stroke:none;" d="M170 257L171 258L170 257M347 258L348 259L347 258z"/>
    <path style="fill:#9fdaf2; stroke:none;" d="M549 258L549 262L550 262L549 258z"/>
    <path style="fill:#ff9d9b; stroke:none;" d="M169 259L170 260L169 259M348 260L349 261L348 260z"/>
    <path style="fill:#9fdaf2; stroke:none;" d="M493.333 260.667L493.667 261.333L493.333 260.667z"/>
    <path style="fill:#ff9d9b; stroke:none;"
          d="M168 261L169 262L168 261M349 262L350 263L349 262M167.333 263.667L167.667 264.333L167.333 263.667M350 264L351 265L350 264z"/>
    <path style="fill:#9fdaf2; stroke:none;" d="M494 265L494 272L495 272L494 265z"/>
    <path style="fill:#ff9d9b; stroke:none;"
          d="M166.333 267.667L166.667 268.333L166.333 267.667M351 267L352 268L351 267z"/>
    <path style="fill:#9fdaf2; stroke:none;" d="M550 267L550 288L551 288L550 267z"/>
    <path style="fill:#ff9d9b; stroke:none;" d="M352 270L352 273L353 273L352 270M165 272L165 277L166 277L165 272z"/>
    <path style="fill:#9fdaf2; stroke:none;" d="M494 273L494 282L495 282L494 273z"/>
    <path style="fill:#ff9d9b; stroke:none;" d="M353 277L353 286L354 286L353 277M165 284L165 289L166 289L165 284z"/>
    <path style="fill:#9fdaf2; stroke:none;" d="M493 286L493 289L494 289L493 286z"/>
    <path style="fill:#ff9d9b; stroke:none;" d="M352 290L352 293L353 293L352 290z"/>
    <path style="fill:#9fdaf2; stroke:none;" d="M492.333 291.667L492.667 292.333L492.333 291.667z"/>
    <path style="fill:#ff9d9b; stroke:none;" d="M166 292L166 295L167 295L166 292z"/>
    <path style="fill:#9fdaf2; stroke:none;" d="M549 293L549 296L550 296L549 293z"/>
    <path style="fill:#ff9d9b; stroke:none;" d="M351.333 295.667L351.667 296.333L351.333 295.667z"/>
    <path style="fill:#9fdaf2; stroke:none;" d="M491 295L492 296L491 295z"/>
    <path style="fill:#ff9d9b; stroke:none;" d="M167.333 297.667L167.667 298.333L167.333 297.667z"/>
    <path style="fill:#9fdaf2; stroke:none;" d="M490 298L491 299L490 298z"/>
    <path style="fill:#ff9d9b; stroke:none;" d="M350.333 299.667L350.667 300.333L350.333 299.667z"/>
    <path style="fill:#9fdaf2; stroke:none;"
          d="M548 299L548 302L549 302L548 299M489.333 300.667L489.667 301.333L489.333 300.667z"/>
    <path style="fill:#ff9d9b; stroke:none;"
          d="M168 301L169 302L168 301M349 302L350 303L349 302M169.333 303.667L169.667 304.333L169.333 303.667z"/>
    <path style="fill:#9fdaf2; stroke:none;" d="M488 303L489 304L488 303z"/>
    <path style="fill:#ff9d9b; stroke:none;" d="M348.333 304.667L348.667 305.333L348.333 304.667z"/>
    <path style="fill:#9fdaf2; stroke:none;"
          d="M547.333 304.667L547.667 305.333L547.333 304.667M487 305L488 306L487 305z"/>
    <path style="fill:#ff9d9b; stroke:none;" d="M170 306L171 307L170 306z"/>
    <path style="fill:#9fdaf2; stroke:none;" d="M486 306L487 307L486 306z"/>
    <path style="fill:#ff9d9b; stroke:none;" d="M347 307L348 308L347 307M171 308L172 309L171 308z"/>
    <path style="fill:#9fdaf2; stroke:none;" d="M485 308L486 309L485 308M546 308L547 309L546 308z"/>
    <path style="fill:#ff9d9b; stroke:none;" d="M346 309L347 310L346 309M172 310L173 311L172 310z"/>
    <path style="fill:#9fdaf2; stroke:none;"
          d="M483 311L484 312L483 311M545.333 311.667L545.667 312.333L545.333 311.667z"/>
    <path style="fill:#ff9d9b; stroke:none;" d="M173 312L174 313L173 312M344 312L345 313L344 312z"/>
    <path style="fill:#9fdaf2; stroke:none;" d="M482 312L483 313L482 312M481 313L482 314L481 313z"/>
    <path style="fill:#ff9d9b; stroke:none;" d="M174 314L175 315L174 314M343 314L344 315L343 314z"/>
    <path style="fill:#9fdaf2; stroke:none;" d="M544 314L545 315L544 314z"/>
    <path style="fill:#ff9d9b; stroke:none;" d="M175 316L176 317L175 316M341 317L342 318L341 317z"/>
    <path style="fill:#9fdaf2; stroke:none;" d="M477 317L478 318L477 317M543 317L544 318L543 317z"/>
    <path style="fill:#ff9d9b; stroke:none;" d="M340 318L341 319L340 318z"/>
    <path style="fill:#9fdaf2; stroke:none;" d="M476 318L477 319L476 318z"/>
    <path style="fill:#ff9d9b; stroke:none;" d="M177 319L178 320L177 319z"/>
    <path style="fill:#9fdaf2; stroke:none;" d="M475 319L476 320L475 319M542 319L543 320L542 319z"/>
    <path style="fill:#ff9d9b; stroke:none;" d="M178 320L179 321L178 320z"/>
    <path style="fill:#9fdaf2; stroke:none;"
          d="M472 321L473 322L472 321M541.333 321.667L541.667 322.333L541.333 321.667z"/>
    <path style="fill:#ff9d9b; stroke:none;" d="M337 322L338 323L337 322z"/>
    <path style="fill:#9fdaf2; stroke:none;" d="M471 322L472 323L471 322z"/>
    <path style="fill:#ff9d9b; stroke:none;" d="M180 323L181 324L180 323M336 323L337 324L336 323z"/>
    <path style="fill:#9fdaf2; stroke:none;" d="M469 323L470 324L469 323z"/>
    <path style="fill:#ff9d9b; stroke:none;" d="M181 324L182 325L181 324M335 324L336 325L335 324z"/>
    <path style="fill:#9fdaf2; stroke:none;" d="M467 324L468 325L467 324M540 324L541 325L540 324z"/>
    <path style="fill:#ffffff00; stroke:none;"
          d="M0 325L0 600L275 600L275 599C251.499 598.984 227.142 592.38 205 585C125.071 558.357 60.2849 498.387 25.3086 422C15.9953 401.66 9.57628 379.885 5.19985 358C3.17041 347.852 3.92154 334.342 0 325z"/>
    <path style="fill:#ff9d9b; stroke:none;" d="M182 325L183 326L182 325M334 325L335 326L334 325z"/>
    <path style="fill:#9fdaf2; stroke:none;" d="M465 325L466 326L465 325z"/>
    <path style="fill:#ffffff00; stroke:none;"
          d="M599 325C598.984 348.881 592.163 373.511 584.667 396C557.206 478.383 492.593 546.562 412 578.8C385.046 589.582 354.286 598.981 325 599L325 600L600 600L600 406L600 350L599 325z"/>
    <path style="fill:#ff9d9b; stroke:none;" d="M183 326L184 327L183 326M333 326L334 327L333 326z"/>
    <path style="fill:#9fdaf2; stroke:none;"
          d="M463 326L464 327L463 326M539 326L540 327L539 326M461 327L462 328L461 327M458.667 328.333L459.333 328.667L458.667 328.333M455.667 329.333L456.333 329.667L455.667 329.333M537 329L538 330L537 329M424 330L424 331L429 331L424 330M444 330L444 331L451 331L444 330M536 331L537 332L536 331z"/>
    <path style="fill:#ff9d9b; stroke:none;" d="M327 333L328 334L327 333z"/>
    <path style="fill:#9fdaf2; stroke:none;" d="M535 333L536 334L535 333z"/>
    <path style="fill:#ff9d9b; stroke:none;" d="M190 334L191 335L190 334M326 334L327 335L326 334z"/>
    <path style="fill:#9fdaf2; stroke:none;" d="M534 334L535 335L534 334z"/>
    <path style="fill:#ff9d9b; stroke:none;"
          d="M191 335L192 336L191 335M325 335L326 336L325 335M192 336L193 337L192 336M324 336L325 337L324 336z"/>
    <path style="fill:#9fdaf2; stroke:none;" d="M533 336L534 337L533 336z"/>
    <path style="fill:#ff9d9b; stroke:none;" d="M193 337L194 338L193 337M323 337L324 338L323 337z"/>
    <path style="fill:#9fdaf2; stroke:none;" d="M532 337L533 338L532 337z"/>
    <path style="fill:#ff9d9b; stroke:none;"
          d="M194 338L195 339L194 338M322 338L323 339L322 338M195 339L196 340L195 339M321 339L322 340L321 339z"/>
    <path style="fill:#9fdaf2; stroke:none;" d="M531 339L532 340L531 339z"/>
    <path style="fill:#ff9d9b; stroke:none;" d="M196 340L197 341L196 340M320 340L321 341L320 340z"/>
    <path style="fill:#9fdaf2; stroke:none;" d="M530 340L531 341L530 340z"/>
    <path style="fill:#ff9d9b; stroke:none;"
          d="M197 341L198 342L197 341M319 341L320 342L319 341M198 342L199 343L198 342M318 342L319 343L318 342M199 343L200 344L199 343M317 343L318 344L317 343z"/>
    <path style="fill:#9fdaf2; stroke:none;" d="M528 343L529 344L528 343z"/>
    <path style="fill:#ff9d9b; stroke:none;" d="M200 344L201 345L200 344M316 344L317 345L316 344z"/>
    <path style="fill:#9fdaf2; stroke:none;" d="M527 344L528 345L527 344z"/>
    <path style="fill:#ff9d9b; stroke:none;" d="M201 345L202 346L201 345M315 345L316 346L315 345z"/>
    <path style="fill:#9fdaf2; stroke:none;" d="M526 345L527 346L526 345z"/>
    <path style="fill:#ff9d9b; stroke:none;" d="M202 346L203 347L202 346M314 346L315 347L314 346z"/>
    <path style="fill:#9fdaf2; stroke:none;" d="M525 346L526 347L525 346z"/>
    <path style="fill:#ff9d9b; stroke:none;"
          d="M313 347L314 348L313 347M312 348L313 349L312 348M311 349L312 350L311 349M310 350L311 351L310 350M309 351L310 352L309 351M308 352L309 353L308 352M307 353L308 354L307 353M306 354L307 355L306 354M305 355L306 356L305 355M304 356L305 357L304 356z"/>
    <path style="fill:#9fdaf2; stroke:none;" d="M515 356L516 357L515 356z"/>
    <path style="fill:#ff9d9b; stroke:none;" d="M303 357L304 358L303 357z"/>
    <path style="fill:#9fdaf2; stroke:none;" d="M514 357L515 358L514 357z"/>
    <path style="fill:#ff9d9b; stroke:none;" d="M215 358L216 359L215 358M302 358L303 359L302 358z"/>
    <path style="fill:#9fdaf2; stroke:none;" d="M513 358L514 359L513 358z"/>
    <path style="fill:#ff9d9b; stroke:none;"
          d="M216 359L217 360L216 359M301 359L302 360L301 359M217 360L218 361L217 360M300 360L301 361L300 360M218 361L219 362L218 361M299 361L300 362L299 361z"/>
    <path style="fill:#9fdaf2; stroke:none;"
          d="M509 361L510 362L509 361M95 362L95 413L96 413C96 398.689 100.508 375.127 95 362z"/>
    <path style="fill:#ff9d9b; stroke:none;" d="M219 362L220 363L219 362M298 362L299 363L298 362z"/>
    <path style="fill:#9fdaf2; stroke:none;" d="M508 362L509 363L508 362z"/>
    <path style="fill:#ff9d9b; stroke:none;" d="M220 363L221 364L220 363M297 363L298 364L297 363z"/>
    <path style="fill:#9fdaf2; stroke:none;" d="M506 363L507 364L506 363z"/>
    <path style="fill:#ff9d9b; stroke:none;" d="M221 364L222 365L221 364M296 364L297 365L296 364z"/>
    <path style="fill:#9fdaf2; stroke:none;" d="M505 364L506 365L505 364z"/>
    <path style="fill:#ff9d9b; stroke:none;" d="M222 365L223 366L222 365M295 365L296 366L295 365z"/>
    <path style="fill:#9fdaf2; stroke:none;" d="M503 365L504 366L503 365z"/>
    <path style="fill:#ff9d9b; stroke:none;" d="M294 366L295 367L294 366z"/>
    <path style="fill:#9fdaf2; stroke:none;" d="M502 366L503 367L502 366z"/>
    <path style="fill:#ff9d9b; stroke:none;" d="M293 367L294 368L293 367z"/>
    <path style="fill:#9fdaf2; stroke:none;" d="M500 367L501 368L500 367z"/>
    <path style="fill:#ff9d9b; stroke:none;" d="M292 368L293 369L292 368z"/>
    <path style="fill:#9fdaf2; stroke:none;"
          d="M498 368L499 369L498 368M497 369L498 370L497 369M495 370L496 371L495 370M493 371L494 372L493 371M491 372L492 373L491 372z"/>
    <path style="fill:#ff9d9b; stroke:none;" d="M231 373L232 374L231 373z"/>
    <path style="fill:#9fdaf2; stroke:none;" d="M489 373L490 374L489 373z"/>
    <path style="fill:#ff9d9b; stroke:none;" d="M232 374L233 375L232 374z"/>
    <path style="fill:#9fdaf2; stroke:none;" d="M487 374L488 375L487 374z"/>
    <path style="fill:#ff9d9b; stroke:none;" d="M233 375L234 376L233 375z"/>
    <path style="fill:#9fdaf2; stroke:none;" d="M484 375L485 376L484 375z"/>
    <path style="fill:#ff9d9b; stroke:none;" d="M234 376L235 377L234 376z"/>
    <path style="fill:#9fdaf2; stroke:none;" d="M482 376L483 377L482 376z"/>
    <path style="fill:#ff9d9b; stroke:none;" d="M235 377L236 378L235 377z"/>
    <path style="fill:#9fdaf2; stroke:none;" d="M479 377L480 378L479 377z"/>
    <path style="fill:#ff9d9b; stroke:none;" d="M236 378L237 379L236 378M281 378L282 379L281 378z"/>
    <path style="fill:#9fdaf2; stroke:none;" d="M476.667 378.333L477.333 378.667L476.667 378.333z"/>
    <path style="fill:#ff9d9b; stroke:none;" d="M280 379L281 380L280 379z"/>
    <path style="fill:#9fdaf2; stroke:none;" d="M473.667 379.333L474.333 379.667L473.667 379.333z"/>
    <path style="fill:#ff9d9b; stroke:none;" d="M279 380L280 381L279 380z"/>
    <path style="fill:#9fdaf2; stroke:none;" d="M469.667 380.333L470.333 380.667L469.667 380.333z"/>
    <path style="fill:#ff9d9b; stroke:none;" d="M278 381L279 382L278 381z"/>
    <path style="fill:#9fdaf2; stroke:none;" d="M466.667 381.333L467.333 381.667L466.667 381.333z"/>
    <path style="fill:#ff9d9b; stroke:none;" d="M277 382L278 383L277 382z"/>
    <path style="fill:#9fdaf2; stroke:none;" d="M461.667 382.333L462.333 382.667L461.667 382.333z"/>
    <path style="fill:#ff9d9b; stroke:none;" d="M276 383L277 384L276 383z"/>
    <path style="fill:#9fdaf2; stroke:none;" d="M455 383L455 384L458 384L455 383z"/>
    <path style="fill:#ff9d9b; stroke:none;" d="M275 384L276 385L275 384z"/>
    <path style="fill:#9fdaf2; stroke:none;" d="M448 384L448 385L452 385L448 384z"/>
    <path style="fill:#ff9d9b; stroke:none;" d="M244 385L245 386L244 385M274 385L275 386L274 385z"/>
    <path style="fill:#9fdaf2; stroke:none;" d="M422 385L422 393L423 393L423 386L442 386L422 385z"/>
    <path style="fill:#ff9d9b; stroke:none;"
          d="M245 386L246 387L245 386M246 387L247 388L246 387M247 388L248 389L247 388M248 389L249 390L248 389M249 390L250 391L249 390M250 391L251 392L250 391M266 392L267 393L266 392M265 393L266 394L265 393M264 394L265 395L264 394M263 395L264 396L263 395M256 396L257 397L256 396M262 396L263 397L262 396M258 397L258 398L261 398L258 397z"/>
    <path style="fill:#9fdaf2; stroke:none;"
          d="M421 400L421 404L422 404L421 400M420 407L420 410L421 410L420 407M419.333 412.667L419.667 413.333L419.333 412.667M418 416L419 417L418 416M96 417L96 420L97 420L96 417M417 419L418 420L417 419M97.3333 422.667L97.6667 423.333L97.3333 422.667M416 422L417 423L416 422M415 424L416 425L415 424M98 426L99 427L98 426M414 426L415 427L414 426M99 428L100 429L99 428M413 428L414 429L413 428M100 430L101 431L100 430M412 430L413 431L412 430M411 431L412 432L411 431M101 432L102 433L101 432M410 433L411 434L410 433M102 434L103 435L102 434M409 434L410 435L409 434M103 436L104 437L103 436M104 437L105 438L104 437M407 437L408 438L407 437M406 438L407 439L406 438M405 439L406 440L405 439M106 440L107 441L106 440M404 440L405 441L404 440M107 441L108 442L107 441M403 441L404 442L403 441M108 442L109 443L108 442M402 442L403 443L402 442M109 443L110 444L109 443M401 443L402 444L401 443M110 444L111 445L110 444M398 445L399 446L398 445M397 446L398 447L397 446M114 447L115 448L114 447M395 447L396 448L395 447M117 449L118 450L117 449M392 449L393 450L392 449M119 450L120 451L119 450M390 450L391 451L390 450M121 451L122 452L121 451M388 451L389 452L388 451M123 452L124 453L123 452M385 452L386 453L385 452M125.667 453.333L126.333 453.667L125.667 453.333M382.667 453.333L383.333 453.667L382.667 453.333M128.667 454.333L129.333 454.667L128.667 454.333M379.667 454.333L380.333 454.667L379.667 454.333M132.667 455.333L133.333 455.667L132.667 455.333M374 455L374 456L377 456L374 455M136 456L136 457L140 457L136 456M250 456L250 457L362 457L328 456L250 456z"/>
</svg>
