<svg id="svg" version="1.1" xmlns="http://www.w3.org/2000/svg" xmlns:xlink="http://www.w3.org/1999/xlink" width="400" height="281.25" viewBox="0, 0, 400,281.25"><g id="svgg"><path id="path0" d="M160.133 84.024 C 159.361 85.203,159.217 195.371,159.985 196.906 C 160.773 198.479,164.090 197.876,167.115 195.609 C 167.642 195.214,168.959 194.442,170.042 193.894 C 171.125 193.346,172.387 192.631,172.846 192.307 C 173.306 191.982,174.793 191.112,176.152 190.373 C 177.510 189.634,179.777 188.402,181.189 187.634 C 182.601 186.867,183.962 186.058,184.213 185.838 C 184.464 185.617,185.492 185.025,186.498 184.523 C 187.504 184.021,188.868 183.238,189.531 182.784 C 190.194 182.329,191.333 181.695,192.063 181.374 C 192.793 181.052,194.086 180.320,194.937 179.747 C 195.788 179.173,197.110 178.428,197.875 178.092 C 198.640 177.755,199.653 177.184,200.127 176.823 C 200.600 176.462,201.936 175.690,203.096 175.107 C 204.255 174.524,205.710 173.701,206.329 173.279 C 206.948 172.857,208.277 172.105,209.283 171.608 C 210.288 171.111,211.301 170.538,211.533 170.335 C 211.765 170.131,212.778 169.554,213.783 169.052 C 214.789 168.550,216.118 167.793,216.737 167.370 C 217.356 166.947,218.685 166.188,219.691 165.684 C 220.696 165.180,221.895 164.501,222.354 164.177 C 222.814 163.852,224.301 162.982,225.659 162.244 C 227.018 161.505,229.285 160.272,230.697 159.505 C 232.109 158.738,233.470 157.929,233.721 157.708 C 233.972 157.487,235.000 156.896,236.006 156.394 C 237.011 155.892,238.376 155.109,239.039 154.654 C 239.702 154.200,240.841 153.565,241.571 153.244 C 242.300 152.923,243.594 152.191,244.444 151.617 C 245.295 151.044,246.589 150.312,247.318 149.991 C 248.048 149.670,249.187 149.035,249.850 148.581 C 250.513 148.126,251.878 147.341,252.883 146.835 C 253.889 146.330,255.218 145.570,255.837 145.147 C 256.456 144.724,257.631 144.090,258.449 143.739 C 262.013 142.209,262.013 139.085,258.449 137.555 C 257.631 137.204,256.456 136.570,255.837 136.147 C 255.218 135.723,253.763 134.900,252.603 134.317 C 251.444 133.734,250.108 132.961,249.634 132.600 C 249.161 132.239,248.148 131.668,247.383 131.332 C 246.618 130.995,245.295 130.250,244.444 129.677 C 243.594 129.103,242.271 128.358,241.506 128.021 C 240.741 127.685,239.728 127.114,239.255 126.753 C 238.781 126.392,237.445 125.622,236.285 125.042 C 235.126 124.462,233.972 123.807,233.721 123.586 C 233.470 123.365,232.109 122.556,230.697 121.789 C 229.285 121.022,227.018 119.789,225.659 119.050 C 224.301 118.312,222.814 117.441,222.354 117.117 C 221.895 116.792,220.734 116.133,219.776 115.651 C 218.817 115.169,217.254 114.271,216.302 113.656 C 215.350 113.041,214.299 112.452,213.966 112.348 C 213.634 112.244,212.539 111.624,211.533 110.972 C 210.527 110.320,209.105 109.522,208.373 109.201 C 207.641 108.879,206.628 108.305,206.123 107.925 C 205.617 107.545,204.318 106.791,203.235 106.249 C 202.152 105.708,200.589 104.808,199.761 104.250 C 198.933 103.692,198.095 103.235,197.898 103.235 C 197.701 103.235,196.591 102.615,195.430 101.857 C 194.270 101.100,192.739 100.223,192.028 99.908 C 191.317 99.594,190.194 98.965,189.531 98.510 C 188.868 98.056,187.504 97.269,186.498 96.763 C 185.492 96.257,184.290 95.557,183.826 95.209 C 183.361 94.861,181.969 94.047,180.731 93.401 C 177.138 91.525,173.768 89.639,172.855 88.994 C 172.391 88.666,171.188 87.988,170.183 87.487 C 169.177 86.986,167.941 86.266,167.435 85.886 C 164.483 83.669,160.955 82.770,160.133 84.024 " stroke="none" fill="#fcfafa" fill-rule="evenodd"></path><path id="path1" d="M60.901 0.280 C 60.805 0.436,60.045 0.563,59.212 0.563 C 58.380 0.563,57.620 0.689,57.525 0.844 C 57.429 0.999,57.101 1.125,56.796 1.125 C 56.491 1.125,56.168 1.315,56.079 1.547 C 55.990 1.779,55.685 1.969,55.401 1.969 C 55.118 1.969,54.807 2.096,54.712 2.250 C 54.609 2.417,52.886 2.532,50.492 2.532 C 48.229 2.532,46.374 2.650,46.281 2.800 C 46.190 2.948,45.357 3.154,44.430 3.259 C 43.503 3.364,42.676 3.560,42.593 3.694 C 42.510 3.828,42.066 3.938,41.606 3.938 C 41.122 3.938,40.702 4.116,40.608 4.360 C 40.519 4.592,40.226 4.782,39.957 4.782 C 39.688 4.782,39.243 5.031,38.968 5.335 C 38.632 5.706,37.925 5.949,36.809 6.075 C 35.896 6.178,35.081 6.372,34.998 6.507 C 34.915 6.641,34.598 6.751,34.292 6.751 C 33.987 6.751,33.665 6.941,33.576 7.173 C 33.487 7.405,33.162 7.595,32.855 7.595 C 32.534 7.595,32.234 7.833,32.150 8.153 C 31.963 8.871,30.567 9.564,29.310 9.564 C 28.497 9.564,28.092 9.808,26.978 10.970 C 26.236 11.744,25.455 12.377,25.241 12.377 C 25.027 12.377,24.561 12.687,24.205 13.065 C 23.850 13.444,23.291 13.792,22.964 13.839 C 22.631 13.886,22.324 14.172,22.266 14.487 C 22.135 15.212,21.404 16.034,20.891 16.034 C 20.356 16.034,18.934 17.480,18.804 18.158 C 18.747 18.456,18.456 18.747,18.158 18.804 C 17.492 18.932,16.034 20.352,16.034 20.873 C 16.034 21.082,15.211 22.069,14.205 23.066 C 13.200 24.063,12.377 25.073,12.377 25.312 C 12.377 25.550,12.060 25.983,11.674 26.274 C 11.287 26.564,10.970 26.976,10.970 27.190 C 10.970 27.403,10.654 28.079,10.267 28.692 C 9.880 29.305,9.564 29.991,9.564 30.217 C 9.564 30.443,9.437 30.706,9.283 30.802 C 9.128 30.897,9.001 31.163,9.001 31.392 C 9.001 31.621,8.495 32.290,7.876 32.879 C 7.160 33.561,6.751 34.200,6.751 34.640 C 6.751 35.020,6.626 35.455,6.474 35.608 C 6.321 35.760,6.100 37.133,5.982 38.658 C 5.763 41.479,5.691 41.635,4.430 42.024 C 4.106 42.125,3.938 42.462,3.938 43.013 C 3.938 43.472,3.828 43.917,3.694 44.000 C 3.560 44.083,3.364 44.909,3.259 45.836 C 3.154 46.763,2.948 47.596,2.800 47.687 C 2.652 47.779,2.532 49.482,2.532 51.477 C 2.532 53.589,2.414 55.173,2.250 55.274 C 2.096 55.370,1.969 55.678,1.969 55.960 C 1.969 56.241,1.779 56.629,1.547 56.821 C 1.315 57.014,1.125 57.409,1.125 57.700 C 1.125 57.990,1.010 58.228,0.870 58.228 C 0.276 58.228,0.211 65.134,0.094 140.225 C -0.029 218.925,-0.010 220.896,0.869 222.570 C 1.010 222.839,1.125 223.327,1.125 223.655 C 1.125 223.982,1.442 224.627,1.828 225.086 C 2.496 225.879,2.532 226.101,2.532 229.400 C 2.532 231.313,2.642 232.946,2.776 233.029 C 2.910 233.112,3.107 234.064,3.214 235.144 C 3.435 237.388,3.840 238.350,5.052 239.511 C 5.754 240.184,5.909 240.560,5.919 241.614 C 5.926 242.320,6.047 243.404,6.188 244.023 C 6.329 244.641,6.529 245.527,6.632 245.992 C 6.736 246.456,7.186 247.222,7.632 247.696 C 8.620 248.741,9.564 250.533,9.564 251.361 C 9.564 251.696,9.754 252.128,9.986 252.321 C 10.218 252.513,10.408 252.820,10.408 253.003 C 10.408 253.186,10.851 253.765,11.392 254.290 C 11.934 254.815,12.377 255.457,12.377 255.717 C 12.377 255.977,12.567 256.347,12.799 256.540 C 13.031 256.733,13.221 257.043,13.221 257.229 C 13.221 257.655,14.410 258.790,14.856 258.790 C 15.040 258.790,15.190 258.952,15.190 259.149 C 15.190 259.346,16.133 260.445,17.287 261.591 C 18.440 262.736,19.421 263.935,19.467 264.256 C 19.515 264.596,19.793 264.873,20.134 264.922 C 20.456 264.968,21.465 265.759,22.376 266.680 C 23.287 267.601,24.170 268.354,24.336 268.354 C 24.503 268.354,25.134 268.861,25.738 269.480 C 26.343 270.098,26.982 270.605,27.159 270.605 C 27.597 270.605,29.205 271.422,29.406 271.748 C 29.496 271.893,29.914 272.011,30.337 272.011 C 30.884 272.011,31.495 272.408,32.464 273.392 C 33.562 274.506,34.062 274.805,35.056 274.939 C 35.733 275.031,36.846 275.181,37.529 275.273 C 38.321 275.379,39.000 275.684,39.406 276.116 C 39.756 276.489,40.257 276.793,40.521 276.793 C 40.784 276.793,41.158 276.983,41.350 277.215 C 41.543 277.447,42.039 277.637,42.454 277.637 C 42.868 277.637,43.338 277.769,43.499 277.930 C 43.664 278.095,45.921 278.298,48.689 278.397 C 53.737 278.577,54.860 278.808,55.816 279.864 C 56.191 280.278,56.688 280.450,57.512 280.450 C 58.153 280.450,58.836 280.608,59.030 280.802 C 59.547 281.319,341.016 281.319,341.533 280.802 C 341.726 280.608,342.357 280.450,342.934 280.450 C 343.736 280.450,344.216 280.230,344.979 279.510 L 345.975 278.570 351.387 278.382 C 354.364 278.279,356.924 278.069,357.077 277.916 C 357.231 277.762,357.695 277.637,358.109 277.637 C 358.523 277.637,359.020 277.447,359.212 277.215 C 359.405 276.983,359.754 276.793,359.988 276.793 C 360.221 276.793,360.681 276.489,361.008 276.117 C 361.407 275.664,362.022 275.388,362.869 275.282 C 366.159 274.870,366.589 274.744,367.393 273.958 C 367.844 273.517,368.214 272.975,368.214 272.754 C 368.214 272.258,368.818 272.011,370.035 272.011 C 370.604 272.011,371.030 271.847,371.128 271.589 C 371.217 271.357,371.540 271.167,371.845 271.167 C 372.150 271.167,372.478 271.041,372.574 270.886 C 372.669 270.731,372.993 270.605,373.294 270.605 C 373.637 270.605,373.840 270.412,373.840 270.086 C 373.840 269.408,374.612 268.730,375.668 268.479 C 376.619 268.254,377.496 267.589,377.496 267.094 C 377.496 266.702,378.679 265.541,379.079 265.541 C 379.451 265.541,380.858 264.061,381.267 263.239 C 381.446 262.881,381.908 262.436,382.294 262.251 C 383.120 261.855,384.195 260.762,384.644 259.861 C 384.819 259.511,385.243 259.083,385.587 258.912 C 386.670 258.372,387.342 257.602,387.342 256.902 C 387.342 256.476,387.863 255.674,388.748 254.738 C 389.522 253.920,390.155 253.097,390.155 252.909 C 390.155 251.294,391.576 248.664,392.449 248.664 C 392.775 248.664,392.968 248.461,392.968 248.118 C 392.968 247.818,393.082 247.501,393.221 247.415 C 393.361 247.329,393.563 246.498,393.671 245.570 C 393.779 244.641,393.981 243.810,394.121 243.724 C 394.260 243.638,394.374 243.268,394.374 242.902 C 394.374 242.537,394.691 241.861,395.077 241.402 C 395.464 240.942,395.781 240.363,395.781 240.114 C 395.781 239.866,395.907 239.662,396.062 239.662 C 396.217 239.662,396.344 239.251,396.345 238.748 C 396.346 238.245,396.536 237.471,396.767 237.028 C 397.082 236.423,397.187 235.221,397.187 232.198 C 397.187 228.315,397.212 228.143,397.890 227.337 C 398.277 226.877,398.594 226.298,398.594 226.049 C 398.594 225.801,398.720 225.598,398.875 225.598 C 399.030 225.598,399.157 225.376,399.158 225.105 C 399.159 224.835,399.349 224.251,399.580 223.808 C 400.220 222.580,400.218 57.915,399.578 57.384 C 399.346 57.191,399.156 56.707,399.156 56.308 C 399.156 55.870,398.793 55.208,398.242 54.640 L 397.328 53.697 397.235 49.141 C 397.185 46.635,397.026 44.465,396.884 44.318 C 396.741 44.171,396.624 43.874,396.624 43.657 C 396.624 43.265,395.958 41.587,395.484 40.788 C 395.207 40.321,394.445 38.710,394.086 37.834 C 393.960 37.525,393.789 36.702,393.708 36.006 C 393.517 34.382,392.962 33.289,391.715 32.081 C 391.166 31.549,390.717 30.892,390.717 30.622 C 390.717 30.353,390.591 30.053,390.436 29.958 C 390.281 29.862,390.155 29.312,390.155 28.735 C 390.155 27.849,389.937 27.472,388.748 26.301 C 387.975 25.539,387.342 24.714,387.342 24.468 C 387.342 23.968,385.783 22.398,385.021 22.131 C 384.750 22.036,384.529 21.793,384.529 21.591 C 384.529 21.389,383.579 20.281,382.419 19.128 C 381.259 17.975,380.309 16.868,380.309 16.667 C 380.309 16.466,380.025 16.189,379.677 16.052 C 379.328 15.914,378.288 15.031,377.365 14.089 C 376.441 13.148,375.487 12.377,375.244 12.377 C 375.002 12.377,374.180 11.744,373.418 10.970 C 372.247 9.782,371.870 9.564,370.984 9.564 C 370.407 9.564,369.857 9.437,369.761 9.283 C 369.665 9.128,369.366 9.001,369.096 9.001 C 368.826 9.001,368.169 8.550,367.636 7.998 C 366.448 6.770,365.426 6.286,363.502 6.042 C 362.690 5.939,361.955 5.740,361.868 5.600 C 361.782 5.459,361.487 5.345,361.214 5.345 C 360.941 5.345,360.432 5.041,360.083 4.670 C 359.441 3.986,359.264 3.927,356.259 3.377 C 355.331 3.207,354.351 2.948,354.083 2.800 C 353.814 2.652,351.945 2.532,349.930 2.532 C 347.709 2.532,346.017 2.404,345.636 2.207 C 345.290 2.028,344.817 1.778,344.585 1.652 C 343.223 0.910,342.336 0.581,341.210 0.401 C 339.156 0.071,61.104 -0.048,60.901 0.280 M164.395 84.229 C 165.561 84.760,166.929 85.506,167.435 85.886 C 167.941 86.266,169.177 86.986,170.183 87.487 C 171.188 87.988,172.391 88.666,172.855 88.994 C 173.768 89.639,177.138 91.525,180.731 93.401 C 181.969 94.047,183.361 94.861,183.826 95.209 C 184.290 95.557,185.492 96.257,186.498 96.763 C 187.504 97.269,188.868 98.056,189.531 98.510 C 190.194 98.965,191.317 99.594,192.028 99.908 C 192.739 100.223,194.270 101.100,195.430 101.857 C 196.591 102.615,197.701 103.235,197.898 103.235 C 198.095 103.235,198.933 103.692,199.761 104.250 C 200.589 104.808,202.152 105.708,203.235 106.249 C 204.318 106.791,205.617 107.545,206.123 107.925 C 206.628 108.305,207.641 108.879,208.373 109.201 C 209.105 109.522,210.527 110.320,211.533 110.972 C 212.539 111.624,213.634 112.244,213.966 112.348 C 214.299 112.452,215.350 113.041,216.302 113.656 C 217.254 114.271,218.817 115.169,219.776 115.651 C 220.734 116.133,221.895 116.792,222.354 117.117 C 222.814 117.441,224.301 118.312,225.659 119.050 C 227.018 119.789,229.285 121.022,230.697 121.789 C 232.109 122.556,233.470 123.365,233.721 123.586 C 233.972 123.807,235.126 124.462,236.285 125.042 C 237.445 125.622,238.781 126.392,239.255 126.753 C 239.728 127.114,240.741 127.685,241.506 128.021 C 242.271 128.358,243.594 129.103,244.444 129.677 C 245.295 130.250,246.618 130.995,247.383 131.332 C 248.148 131.668,249.161 132.239,249.634 132.600 C 250.108 132.961,251.444 133.734,252.603 134.317 C 253.763 134.900,255.218 135.723,255.837 136.147 C 256.456 136.570,257.631 137.204,258.449 137.555 C 262.013 139.085,262.013 142.209,258.449 143.739 C 257.631 144.090,256.456 144.724,255.837 145.147 C 255.218 145.570,253.889 146.330,252.883 146.835 C 251.878 147.341,250.513 148.126,249.850 148.581 C 249.187 149.035,248.048 149.670,247.318 149.991 C 246.589 150.312,245.295 151.044,244.444 151.617 C 243.594 152.191,242.300 152.923,241.571 153.244 C 240.841 153.565,239.702 154.200,239.039 154.654 C 238.376 155.109,237.011 155.892,236.006 156.394 C 235.000 156.896,233.972 157.487,233.721 157.708 C 233.470 157.929,232.109 158.738,230.697 159.505 C 229.285 160.272,227.018 161.505,225.659 162.244 C 224.301 162.982,222.814 163.852,222.354 164.177 C 221.895 164.501,220.696 165.180,219.691 165.684 C 218.685 166.188,217.356 166.947,216.737 167.370 C 216.118 167.793,214.789 168.550,213.783 169.052 C 212.778 169.554,211.765 170.131,211.533 170.335 C 211.301 170.538,210.288 171.111,209.283 171.608 C 208.277 172.105,206.948 172.857,206.329 173.279 C 205.710 173.701,204.255 174.524,203.096 175.107 C 201.936 175.690,200.600 176.462,200.127 176.823 C 199.653 177.184,198.640 177.755,197.875 178.092 C 197.110 178.428,195.788 179.173,194.937 179.747 C 194.086 180.320,192.793 181.052,192.063 181.374 C 191.333 181.695,190.194 182.329,189.531 182.784 C 188.868 183.238,187.504 184.021,186.498 184.523 C 185.492 185.025,184.464 185.617,184.213 185.838 C 183.962 186.058,182.601 186.867,181.189 187.634 C 179.777 188.402,177.510 189.634,176.152 190.373 C 174.793 191.112,173.306 191.982,172.846 192.307 C 172.387 192.631,171.125 193.346,170.042 193.894 C 168.959 194.442,167.642 195.214,167.115 195.609 C 164.090 197.876,160.773 198.479,159.985 196.906 C 159.217 195.371,159.361 85.203,160.133 84.024 C 160.811 82.989,161.776 83.035,164.395 84.229 " stroke="none" fill="#fc0404" fill-rule="evenodd"></path></g></svg>