<?xml version="1.0" ?><svg width="100px" height="100px" viewBox="0 0 100 100" style="enable-background:new 0 0 100 100;"
	version="1.1" xml:space="preserve" xmlns="http://www.w3.org/2000/svg" xmlns:xlink="http://www.w3.org/1999/xlink">
	<g id="Layer_2">
		<path class="st81" fill="#ff3a00"
			d="M97.5,49.589c0.053-9.279-11.282-14.251-18.049-7.909c-8.007-5.538-19.573-8.178-30.978-7.957l6.711-20.48   l18.386,4.329c-1.248,5.306,2.969,11.025,8.685,10.894c11.81-0.467,11.813-17.343,0-17.811c-3.152,0-5.912,1.645-7.495,4.116   l-20.228-4.762c-0.758-0.178-1.527,0.252-1.77,0.993l-7.49,22.86c-9.329,0.625-18.315,3.182-24.885,7.67   c-6.79-6.125-17.956-1.125-17.886,8.056c0,3.732,1.934,7.199,5.11,9.16c-3.747,41.619,87.766,41.734,84.423,0.213   C95.424,57.063,97.517,53.475,97.5,49.589z M29.036,56.785c0-3.614,3.045-6.647,6.673-6.647c8.646,0.341,8.74,12.894,0,13.193   C32.08,63.331,29.036,60.398,29.036,56.785z M65.308,75.423c-5.496,6.356-25.13,6.358-30.623,0   c-1.616-1.677,0.829-4.134,2.512-2.51c4.166,4.965,21.434,4.962,25.603,0C64.467,71.295,66.935,73.745,65.308,75.423z    M64.389,63.356c-3.615,0-6.651-2.942-6.651-6.571c0.404-8.778,12.833-8.881,13.193,0C70.931,60.414,68.004,63.356,64.389,63.356z" />
	</g>
</svg>